<svg xmlns="http://www.w3.org/2000/svg" viewBox="0 0 80 10" aria-label="© Cygames, Inc.">
  <path d="M23.536,2.159l-1.564,3.416-1.584-3.416h-1.139l2.16,4.628-1.447,3.16h1.107l3.574-7.788h-1.106ZM33.963,1.968c-1.607,0-2.937,1.287-2.937,2.937,0,1.628,1.319,2.925,2.937,2.925.691,0,1.616-.362,1.915-.829v.638h1.021V2.106l-1.159.522c-.351-.341-1.064-.66-1.776-.66ZM33.963,6.872c-1,0-1.894-.724-1.894-1.978,0-1.235.894-1.969,1.894-1.969,1.063,0,1.957.756,1.957,1.969,0,1.234-.894,1.978-1.957,1.978ZM15.195,6.84c-1.5,0-2.787-1.116-2.787-2.925s1.287-2.925,2.787-2.925c1.064,0,1.884.5,2.309,1.265h1.213C18.175.936,16.898,0,15.195,0,12.929,0,11.259,1.723,11.259,3.915s1.67,3.915,3.937,3.915c1.703,0,3.138-1.074,3.607-2.5h-1.16c-.372.937-1.351,1.51-2.447,1.51ZM30.26,2.106l-1.128.415c-.436-.35-1-.553-1.563-.553-1.564,0-3,1.256-3,2.872,0,1.607,1.35,2.851,3,2.884.606.01,1.244-.234,1.691-.723,0,.404-.01.702-.117,1.053-.202.638-.755.99-1.468.99-.425,0-.862-.106-1.181-.33-.276-.192-.49-.469-.563-.798h-1.075c.096.51.372,1.032.872,1.426.5.393,1.17.659,1.957.659,1.245,0,2.043-.659,2.362-1.51.309-.809.213-1.713.213-3.117v-3.266ZM27.569,6.766c-1.128,0-1.979-.819-1.979-1.926s.851-1.915,1.979-1.915c1.085,0,1.883.809,1.883,1.915s-.797,1.926-1.883,1.926ZM49.792,1.968c-1.627,0-2.925,1.309-2.925,2.926s1.287,2.936,2.915,2.936c1.234,0,2.298-.744,2.703-1.829h-1.107c-.159.447-.724.872-1.574.872-.884,0-1.809-.691-1.841-1.575h4.703c.021-.127.031-.276.031-.403,0-1.617-1.287-2.926-2.904-2.926ZM47.963,4.468c.085-.851.851-1.543,1.841-1.543.978,0,1.724.703,1.777,1.543h-3.617ZM68.673,1.968c-.479,0-.979.203-1.394.553l-1.138-.415v5.532h1.022v-2.298c0-.5,0-.925.074-1.287.128-.628.585-1.149,1.319-1.149.66,0,1.15.415,1.276,1.021.085.415.075.915.075,1.415v2.298h1.022v-2.575c0-1.053-.022-1.574-.351-2.106-.437-.703-1.128-.99-1.904-.99ZM74.715,6.872c-1.021,0-1.862-.915-1.862-1.978s.841-1.969,1.862-1.969c.744,0,1.33.372,1.543.872h1.149c-.372-1.074-1.436-1.829-2.669-1.829-1.617,0-2.926,1.309-2.926,2.926,0,1.627,1.309,2.936,2.926,2.936,1.234,0,2.308-.755,2.681-1.829h-1.16c-.202.49-.798.872-1.543.872ZM44.016,1.968c-.691,0-1.319.362-1.744.957-.319-.553-.957-.957-1.809-.957-.522,0-1.022.203-1.404.575l-1.064-.437v5.532h1.022v-1.468c0-.819,0-1.213.01-1.777.01-.947.553-1.49,1.276-1.49.777,0,1.224.543,1.235,1.447.01.563.01,1,.01,1.819v1.468h1.021v-1.447c0-.84,0-1.234.01-1.797.011-.947.554-1.49,1.278-1.49.776,0,1.224.543,1.234,1.447.01.563.01,1,.01,1.84v1.447h1.022v-3.075c0-.596-.032-.957-.15-1.319-.234-.712-.947-1.276-1.957-1.276ZM63.853,7.638h1.096V.191h-1.096v7.447ZM56.058,4.681c-.457-.245-.765-.404-1.116-.585-.329-.17-.543-.362-.543-.617,0-.33.319-.574.776-.574.585,0,.915.308,1.01.606l.957-.276c-.191-.702-.989-1.266-1.915-1.266-.447,0-.947.138-1.309.425-.34.278-.563.628-.563,1.128,0,.331.128.65.362.894.244.266.51.425.883.606.585.276.851.415,1.192.607.319.181.478.383.478.659,0,.362-.372.607-.862.607-.575,0-1.096-.351-1.234-.916l-1.01.16c.169,1.085,1.224,1.67,2.138,1.691.49.01,1.021-.116,1.404-.404.35-.266.596-.649.596-1.191,0-.394-.138-.691-.351-.925-.202-.234-.51-.426-.894-.628ZM79.244,6.329c-.425,0-.755.351-.755.745,0,.415.33.755.755.755.415,0,.756-.34.756-.755,0-.394-.341-.745-.756-.745ZM58.19,8.809h.778l.883-2.798h-1.319l-.341,2.798ZM3.925,5.297c-.659,0-1.244-.553-1.244-1.372,0-.83.585-1.383,1.244-1.383.532,0,.969.255,1.064.563h.915c-.149-.766-.947-1.362-1.915-1.362-1.287,0-2.213.99-2.213,2.181,0,1.181.926,2.17,2.213,2.17,1.01,0,1.851-.649,1.978-1.468h-.915c-.085.372-.596.669-1.128.669ZM3.979,0C1.744,0,0,1.776,0,3.915s1.744,3.915,3.979,3.915,3.99-1.787,3.99-3.915S6.224,0,3.979,0ZM3.979,7.096c-1.628,0-3.097-1.266-3.097-3.181C.883,2.01,2.351.744,3.979.744c1.638,0,3.106,1.266,3.106,3.17,0,1.915-1.468,3.181-3.106,3.181Z"/>
</svg>