<?xml version="1.0" encoding="utf-8"?>
<svg xmlns="http://www.w3.org/2000/svg" viewBox="0 0 43.72 49.47">
  <defs>
    <style>.cls-1,.cls-2,.cls-3{stroke-width:0px;}.cls-2{fill:#25f4ee;}.cls-3{fill:#fe2c55;}</style>
  </defs>
  <g id="gn">
    <path class="cls-2" d="m17.02,19.53v-1.98c-.66-.09-1.34-.15-2.02-.15-8.27,0-15,6.73-15,15,0,5.08,2.54,9.57,6.4,12.28-2.5-2.68-3.98-6.27-3.98-10.21,0-8.15,6.49-14.76,14.6-14.94Z"/>
    <path class="cls-2" d="m17.38,41.37c3.69,0,6.75-2.99,6.89-6.64V2.12s5.93-.05,5.93-.05c-.12-.67-.19-1.36-.19-2.07h-8.15v32.66c-.15,3.66-3.16,6.59-6.85,6.59-1.15,0-2.23-.29-3.18-.79,1.25,1.73,3.27,2.9,5.55,2.9Z"/>
    <path class="cls-2" d="m41.34,13.21v-1.87c-2.28,0-4.4-.68-6.17-1.84,1.58,1.82,3.73,3.18,6.17,3.71Z"/>
    <path class="cls-3" d="m35.17,9.5c-1.73-1.99-2.79-4.59-2.79-7.43h-2.18c.57,3.11,2.42,5.77,4.97,7.43Z"/>
    <path class="cls-3" d="m15,25.55c-3.78,0-6.85,3.07-6.85,6.85,0,2.63,1.49,4.92,3.67,6.06-.81-1.13-1.3-2.5-1.3-4,0-3.78,3.07-6.85,6.85-6.85.71,0,1.38.12,2.02.32v-8.32c-.66-.09-1.34-.15-2.02-.15-.12,0-.24,0-.35,0v6.39c-.64-.2-1.32-.32-2.02-.32Z"/>
    <path class="cls-3" d="m41.34,13.15v6.33c-4.23,0-8.14-1.35-11.34-3.65v16.56c0,8.27-6.73,15-15,15-3.2,0-6.16-1.01-8.6-2.72,2.74,2.94,6.64,4.79,10.97,4.79,8.27,0,15-6.73,15-15v-16.56c3.2,2.29,7.11,3.65,11.34,3.65v-8.15c-.81,0-1.61-.09-2.38-.25Z"/>
    <path class="cls-1" d="m30,32.41V15.84c3.2,2.29,7.11,3.65,11.34,3.65v-6.33c-2.44-.52-4.59-1.83-6.17-3.65-2.55-1.67-4.4-4.33-4.97-7.43h-5.97v32.66c-.15,3.66-3.16,6.59-6.85,6.59-2.29,0-4.31-1.13-5.55-2.86-2.18-1.15-3.67-3.43-3.67-6.06,0-3.78,3.07-6.85,6.85-6.85.71,0,1.38.12,2.02.32v-6.39c-8.11.19-14.65,6.84-14.65,14.99,0,3.94,1.53,7.53,4.03,10.21,2.44,1.71,5.4,2.72,8.6,2.72,8.27,0,15-6.73,15-15Z"/>
  </g>
</svg>