<?xml version="1.0" encoding="utf-8"?>
<svg xmlns="http://www.w3.org/2000/svg" viewBox="0 0 52.17 36.52">
  <defs>
    <style>.cls-1{fill:#fff;}.cls-1,.cls-2{stroke-width:0px;}.cls-2{fill:red;}</style>
  </defs>
  <g id="gn">
    <path class="cls-2" d="m51.08,5.7c-.6-2.24-2.37-4.01-4.61-4.61-4.07-1.09-20.38-1.09-20.38-1.09,0,0-16.32,0-20.38,1.09C3.46,1.69,1.69,3.46,1.09,5.7c-1.09,4.07-1.09,12.56-1.09,12.56,0,0,0,8.49,1.09,12.56.6,2.24,2.37,4.01,4.61,4.61,4.07,1.09,20.38,1.09,20.38,1.09,0,0,16.32,0,20.38-1.09,2.24-.6,4.01-2.37,4.61-4.61,1.09-4.07,1.09-12.56,1.09-12.56,0,0,0-8.49-1.09-12.56Z"/>
    <polygon class="cls-1" points="20.87 26.09 34.42 18.26 20.87 10.43 20.87 26.09"/>
  </g>
</svg>